<svg version="1.1" viewBox="0 0 1200 630" xmlns="http://www.w3.org/2000/svg">
 <path d="m20.256 108.52a7.7136 7.7136 0 0 0-7.7136 7.7137v97.981a7.7136 7.7136 0 0 0 7.7136 7.7136h97.976a7.7136 7.7136 0 0 0 7.7137-7.7136v-97.981a7.7136 7.7136 0 0 0-7.7137-7.7137zm19.435 19.56c0.71366-0.0396 1.3702 0.15119 1.9836 0.58253 0.61344 0.43428 1.0178 0.97811 1.2153 1.6372l2.9178 10.039 56.209-2.9479c1.0022-0.0517 1.8378 0.29557 2.5059 1.0396 0.66503 0.73187 0.92932 1.6122 0.76837 2.6265l-4.7105 30.132c-0.16714 0.88974-0.68824 1.8086-1.5568 2.7471-0.86853 0.95047-2.001 1.4634-3.3796 1.5367l-39.707 2.0791 3.6709 12.389 33.562-1.7577c0.87764-0.0486 1.6331 0.21548 2.2799 0.78342 0.63165 0.58311 0.97085 1.3119 1.0194 2.1896 0.04556 0.87764-0.21546 1.6332-0.78342 2.28-0.5831 0.63479-1.3119 0.97444-2.1895 1.0194l-3.1387 0.16558 0.16558 3.1338c0.04555 0.88069-0.21546 1.6383-0.79849 2.2699-0.57091 0.64689-1.2938 0.98951-2.1745 1.0345-0.87765 0.0456-1.6352-0.21547-2.2699-0.79849-0.64687-0.57094-0.98401-1.2968-1.0295-2.1745l-0.16559-3.1338-18.817 0.97927 0.1607 3.1387c0.04555 0.88067-0.21238 1.6382-0.78342 2.2699-0.58308 0.64674-1.3119 0.98848-2.1895 1.0345-0.87766 0.0486-1.6331-0.21546-2.2799-0.79849-0.63471-0.57091-0.97396-1.2968-1.0195-2.1745l-0.16559-3.1387-1.9435 0.10053c-0.75314 0.0394-1.4413-0.13473-2.0791-0.51726-0.62257-0.38263-1.0675-0.76357-1.3408-1.1249l-0.34652-0.61267-15.769-59.624-3.3899 0.17586c-0.84119 0.0456-1.5858-0.21855-2.2448-0.79849-0.65901-0.57086-1.0091-1.2918-1.0546-2.1695-0.04555-0.88069 0.22524-1.6352 0.82361-2.2699 0.59523-0.6469 1.3081-0.98863 2.1494-1.0345z" fill="#fff" stroke-width="1.2084" style="paint-order:stroke fill markers"/>
 <rect x="368.92" y="-8.647" width="618.68" height="618.68" fill="#fff" stroke-linejoin="round" stroke-width="6.0418" style="paint-order:stroke fill markers"/>
 <g stroke-linejoin="round" stroke-width="6.0418">
  <path d="m59.586-3.8136h1237.4v580.01s-51.556-12.084-77.334-12.084c-25.778 0-51.244 12.084-77.335 12.084-26.091 0-51.556-12.084-77.334-12.084-25.778 0-51.244 12.084-77.335 12.084-26.091 0-50.615-41.931-76.393-41.931s-43.072 31.169-85.504 23.256-95.293-5.7286-119.04-1.8694c-57.142 9.1028-59.508-8.1247-105.57-4.0008s-68.78 18.359-145.37 12.602c-76.593-5.7567-93.029-6.5947-155.54-7.5785-25.778 0-59.826 18.693-85.917 18.693-26.091 0-51.556-11.254-77.334-11.254-25.778 0-172.34 66.428-172.34 66.428z" fill="#339933" opacity=".3" style="paint-order:stroke fill markers"/>
  <path d="m-12.915-8.647h1237.4v580.01s-51.556-12.084-77.334-12.084c-25.778 0-51.244 12.084-77.334 12.084-26.091 0-75.228-12.142-101.01-12.142-25.778 0-65.794 11.416-164.41-25.412s-155.37 33.433-202.97 34.185c-85.545-0.0504-3.5584-59.324-203.25-55.331-57.687-1.3568-78.127 40.433-105.69 46.704-27.566 6.2713-54.486-16.105-78.151-16.105-14.933 0-44.462 20.77-54.88 28.017-10.418 7.2465-23.732 12.357-47.124 12.95-26.091 0-85.565-16.747-111.34-16.747-25.778 0-13.863 3.8798-13.863 3.8798z" fill="#339933" style="paint-order:stroke fill markers"/>
  <circle cx="629.79" cy="137.28" r="302.09" fill="#fff" opacity=".15" style="paint-order:stroke fill markers"/>
 </g>
 <g transform="matrix(.20516 0 0 .20516 127.07 503.01)" fill="#fff">
  <path d="m1340.4 187.13v26.573h-14.698v-73.229h29.182c8.4114 0 15.036 2.1458 19.865 6.4375 4.8229 4.2917 7.2396 9.9375 7.2396 16.943 0 7.0052-2.4167 12.635-7.2396 16.891-4.8282 4.2552-11.453 6.3854-19.865 6.3854zm0-11.328h14.484c4.0885 0 7.1927-1.1146 9.3073-3.3333 2.1093-2.2292 3.1562-5.0625 3.1562-8.5104 0-3.5208-1.0469-6.4219-3.1406-8.724-2.0937-2.2812-5.2031-3.4323-9.3229-3.4323h-14.484z"/>
  <path d="m1452 213.7h-14.646v-30.385h-29.865v30.385h-14.698v-73.229h14.698v31.516h29.865v-31.516h14.646z"/>
  <path d="m1524.6 183.68c0 8.974-2.8333 16.391-8.5156 22.26-5.6979 5.8542-13.078 8.7917-22.162 8.7917-9.0104 0-16.338-2.9375-21.969-8.7917-5.6302-5.8698-8.4479-13.286-8.4479-22.26v-13.188c0-8.9427 2.7969-16.359 8.4114-22.229 5.6146-5.8854 12.943-8.8229 21.953-8.8229 9.0833 0 16.479 2.9375 22.182 8.8229 5.6979 5.8698 8.5468 13.286 8.5468 22.229zm-14.677-13.323c0-5.7344-1.4218-10.422-4.276-14.094-2.849-3.6562-6.7813-5.4896-11.776-5.4896-4.9948 0-8.8698 1.8177-11.62 5.474-2.7448 3.6563-4.1198 8.3438-4.1198 14.109v13.323c0 5.8177 1.3906 10.552 4.1719 14.229 2.7812 3.6562 6.6614 5.4896 11.62 5.4896 5.0313 0 8.9636-1.8333 11.776-5.4896 2.8177-3.6771 4.2239-8.4115 4.2239-14.229z"/>
  <path d="m1591.3 188.73 0.1041 0.29166c0.1355 7.875-2.2656 14.125-7.2083 18.76-4.9479 4.6354-11.812 6.9531-20.599 6.9531-8.8229 0-15.984-2.8333-21.474-8.5-5.4948-5.6615-8.2604-12.943-8.2604-21.87v-14.521c0-8.875 2.6979-16.151 8.0521-21.849 5.375-5.7031 12.344-8.5521 20.927-8.5521 9.0417 0 16.115 2.3177 21.214 6.9688 5.0989 4.6562 7.5885 10.99 7.4531 19.005l-0.1041 0.29167h-14.281c0-4.8229-1.151-8.5156-3.4687-11.089-2.3177-2.5573-5.9219-3.8438-10.812-3.8438-4.3959 0-7.8802 1.7813-10.458 5.3386-2.5885 3.5677-3.875 8.099-3.875 13.625v14.594c0 5.5937 1.3542 10.161 4.0677 13.729 2.7292 3.5573 6.3855 5.3385 11.021 5.3385 4.5833 0 7.9791-1.2344 10.177-3.6875 2.1979-2.474 3.2968-6.1302 3.2968-10.984z"/>
  <path d="m1641.2 197.94h-25.698l-4.9947 15.76h-14.828l25.198-73.229h15.036l25.094 73.229h-14.828zm-22.094-11.328h18.474l-9.0677-28.99h-0.2917z"/>
 </g>
 <g fill="none" stroke="#fff" stroke-linecap="round" stroke-linejoin="round" stroke-miterlimit="22.926" stroke-width="1.1631">
  <path d="m402.06 541.4v5.4517h-3.0154v-15.024h5.9869c1.7257 0 3.0848 0.44023 4.0755 1.3207 0.98946 0.88048 1.4853 2.0388 1.4853 3.476 0 1.4372-0.4958 2.5922-1.4853 3.4653-0.99055 0.87299-2.3497 1.31-4.0755 1.31zm0-2.324h2.9715c0.83879 0 1.4756-0.22867 1.9095-0.68385 0.43274-0.45734 0.64752-1.0386 0.64752-1.746 0-0.72232-0.21478-1.3175-0.64432-1.7898-0.42954-0.46801-1.0675-0.70416-1.9127-0.70416h-2.9715z"/>
  <path d="m424.96 546.85h-3.0048v-6.2337h-6.127v6.2337h-3.0154v-15.024h3.0154v6.4658h6.127v-6.4658h3.0048z"/>
  <path d="m439.85 540.69c0 1.8411-0.58128 3.3628-1.747 4.5668-1.169 1.201-2.6831 1.8037-4.5467 1.8037-1.8486 0-3.3519-0.60265-4.5071-1.8037-1.1551-1.2042-1.7332-2.7257-1.7332-4.5668v-2.7056c0-1.8347 0.5738-3.3562 1.7257-4.5605 1.1519-1.2074 2.6554-1.8101 4.5038-1.8101 1.8635 0 3.3808 0.60265 4.5508 1.8101 1.169 1.2042 1.7534 2.7257 1.7534 4.5605zm-3.0111-2.7333c0-1.1765-0.29169-2.1382-0.87726-2.8915-0.58449-0.7501-1.3912-1.1262-2.4159-1.1262-1.0247 0-1.8197 0.37292-2.3839 1.123-0.56312 0.75012-0.84521 1.7118-0.84521 2.8946v2.7333c0 1.1936 0.28529 2.1648 0.8559 2.9192 0.57059 0.7501 1.3666 1.1262 2.3839 1.1262 1.0322 0 1.839-0.37612 2.4159-1.1262 0.57808-0.75438 0.86657-1.7257 0.86657-2.9192z"/>
  <path d="m453.53 541.73 0.0214 0.0598c0.0278 1.6156-0.46481 2.8979-1.4788 3.8488-1.0151 0.95099-2.4233 1.4265-4.2261 1.4265-1.8101 0-3.2792-0.58127-4.4056-1.7438-1.1273-1.1615-1.6947-2.6554-1.6947-4.4868v-2.9791c0-1.8208 0.55349-3.3135 1.652-4.4825 1.1027-1.17 2.5325-1.7545 4.2934-1.7545 1.855 0 3.3061 0.4755 4.3522 1.4297 1.0461 0.95526 1.5568 2.2547 1.5291 3.899l-0.0214 0.0598h-2.9299c0-0.98946-0.23614-1.747-0.71164-2.275-0.47549-0.52465-1.2149-0.78858-2.2182-0.78858-0.90185 0-1.6167 0.36544-2.1455 1.0952-0.53105 0.73195-0.79499 1.6616-0.79499 2.7953v2.9941c0 1.1476 0.27783 2.0846 0.83452 2.8166 0.55992 0.72981 1.31 1.0952 2.261 1.0952 0.9403 0 1.637-0.25325 2.0879-0.75652 0.45091-0.50756 0.67636-1.2577 0.67636-2.2535z"/>
  <path d="m463.77 543.62h-5.2722l-1.0247 3.2333h-3.0421l5.1696-15.024h3.0848l5.1482 15.024h-3.0421zm-4.5328-2.324h3.7901l-1.8603-5.9475h-0.0598z"/>
 </g>
 <text x="953.81653" y="597.07104" fill="#339933" font-family="sans-serif" font-size="25.778px" stroke-width="1.2084" style="line-height:1.25" xml:space="preserve"><tspan x="953.81653" y="597.07104" fill="#339933" font-family="Montserrat" font-size="25.778px" font-weight="300" stroke-width="1.2084" text-align="end" text-anchor="end">WWW.PHOCA.CZ/NEWS</tspan></text>
 <text x="600" y="234.03391" fill="#ffffff" font-family="Rubik" font-size="54.666px" font-weight="600" stroke-width="1.5769" style="line-height:1.05" xml:space="preserve"><tspan x="600" y="234.03391" text-align="center" text-anchor="middle"/><tspan x="600" y="291.43341" font-size="54.666px" text-align="center" text-anchor="middle"> Phoca Download</tspan><tspan x="600" y="348.83292" font-size="54.666px" text-align="center" text-anchor="middle">version 5.1.0
 has been released</tspan><tspan x="600" y="406.23242" font-size="54.666px"/></text>
 <g fill="#fff" stroke-linejoin="round">
  <circle cx="254.2" cy="286.19" r="181.25" opacity=".15" stroke-width="6.0418" style="paint-order:stroke fill markers"/>
  <circle cx="494.23" cy="-8.5062" r="90.626" opacity=".15" stroke-width="6.0418" style="paint-order:stroke fill markers"/>
  <ellipse cx="1091.3" cy="269.78" rx="73.793" ry="75.059" opacity=".15" stroke-width="7.4423" style="paint-order:stroke fill markers"/>
  <circle cx="987.6" cy="447.37" r="30.209" opacity=".15" stroke-width="6.0418" style="paint-order:stroke fill markers"/>
 </g>
</svg>
