<?xml version="1.0" encoding="UTF-8" standalone="no"?>
<!-- Created with Inkscape (http://www.inkscape.org/) -->

<svg
   width="512"
   height="512"
   viewBox="0 0 512 512"
   version="1.1"
   id="svg5"
   inkscape:version="1.2 (1:1.2.1+202207142221+cd75a1ee6d)"
   sodipodi:docname="release-phoca-seal.svg"
   xmlns:inkscape="http://www.inkscape.org/namespaces/inkscape"
   xmlns:sodipodi="http://sodipodi.sourceforge.net/DTD/sodipodi-0.dtd"
   xmlns="http://www.w3.org/2000/svg"
   xmlns:svg="http://www.w3.org/2000/svg">
  <sodipodi:namedview
     id="namedview7"
     pagecolor="#ffffff"
     bordercolor="#666666"
     borderopacity="1.0"
     inkscape:pageshadow="2"
     inkscape:pageopacity="0.0"
     inkscape:pagecheckerboard="0"
     inkscape:document-units="px"
     showgrid="false"
     width="1000px"
     units="px"
     inkscape:showpageshadow="2"
     inkscape:deskcolor="#d1d1d1"
     inkscape:zoom="0.476792"
     inkscape:cx="233.85459"
     inkscape:cy="511.75355"
     inkscape:window-width="1920"
     inkscape:window-height="1015"
     inkscape:window-x="0"
     inkscape:window-y="0"
     inkscape:window-maximized="1"
     inkscape:current-layer="layer1">
    <inkscape:grid
       type="xygrid"
       id="grid824"
       originx="0"
       originy="0" />
    <sodipodi:guide
       position="0,512"
       orientation="0,512"
       id="guide3202"
       inkscape:locked="false" />
    <sodipodi:guide
       position="512,512"
       orientation="512,0"
       id="guide3204"
       inkscape:locked="false" />
    <sodipodi:guide
       position="512,0"
       orientation="0,-512"
       id="guide3206"
       inkscape:locked="false" />
    <sodipodi:guide
       position="0,0"
       orientation="-512,0"
       id="guide3208"
       inkscape:locked="false" />
  </sodipodi:namedview>
  <defs
     id="defs2">
    <clipPath
       id="clip1">
      <path
         d="M 20,426 H 575 V 841.89062 H 20 Z m 0,0"
         id="path2" />
    </clipPath>
  </defs>
  <g
     inkscape:label="Layer 1"
     inkscape:groupmode="layer"
     id="layer1">
    <path
       d="m -288.54911,96.961607 a 6.3836136,6.3836136 0 0 0 -6.38361,6.383623 v 81.08678 a 6.3836136,6.3836136 0 0 0 6.38361,6.38362 h 81.08253 a 6.3836136,6.3836136 0 0 0 6.38362,-6.38362 v -81.08678 a 6.3836136,6.3836136 0 0 0 -6.38362,-6.383623 z m 16.08373,16.187573 c 0.59061,-0.0328 1.13394,0.12512 1.64161,0.48209 0.50767,0.3594 0.84234,0.80946 1.00576,1.35486 l 2.41471,8.30785 46.51739,-2.43961 c 0.82938,-0.0428 1.52094,0.2446 2.07384,0.8603 0.55036,0.60568 0.76908,1.33418 0.63588,2.17362 l -3.89826,24.93652 c -0.13832,0.73633 -0.56957,1.49673 -1.28837,2.27342 -0.71877,0.78659 -1.65597,1.2111 -2.79687,1.27174 l -32.86072,1.72058 3.03797,10.25293 27.7751,-1.45459 c 0.72631,-0.0402 1.3515,0.17832 1.88682,0.64834 0.52274,0.48256 0.80345,1.08569 0.84366,1.81201 0.0377,0.72631 -0.17831,1.35156 -0.64834,1.88683 -0.48256,0.52533 -1.0857,0.80642 -1.81201,0.84366 l -2.59749,0.13703 0.13703,2.59345 c 0.0377,0.72884 -0.17831,1.35582 -0.66081,1.87851 -0.47247,0.53535 -1.07072,0.81889 -1.79954,0.85613 -0.72632,0.0377 -1.35326,-0.17832 -1.8785,-0.66081 -0.53533,-0.4725 -0.81434,-1.07324 -0.852,-1.79955 l -0.13704,-2.59344 -15.57261,0.81042 0.13299,2.59749 c 0.0377,0.72882 -0.17576,1.35569 -0.64834,1.8785 -0.48254,0.53523 -1.0857,0.81804 -1.81201,0.85613 -0.72633,0.0402 -1.35152,-0.17831 -1.88682,-0.66081 -0.52527,-0.47247 -0.80602,-1.07323 -0.84368,-1.79954 l -0.13704,-2.59749 -1.60837,0.0832 c -0.62328,0.0326 -1.1928,-0.1115 -1.72058,-0.42807 -0.51522,-0.31666 -0.88347,-0.63191 -1.10964,-0.93094 l -0.28677,-0.50703 -13.04981,-49.3432 -2.80539,0.14554 c -0.69615,0.0377 -1.31238,-0.18087 -1.85773,-0.66081 -0.54538,-0.47243 -0.83511,-1.06908 -0.87277,-1.79539 -0.0377,-0.72884 0.1864,-1.35324 0.6816,-1.8785 0.4926,-0.53536 1.08259,-0.81817 1.77875,-0.85613 z"
       style="fill:#ffffff;stroke-width:0.999999;paint-order:stroke fill markers"
       id="path400" />
    <rect
       style="opacity:1;fill:#ffffff;stroke-width:5;stroke-linejoin:round;paint-order:stroke fill markers"
       id="rect723"
       width="512"
       height="512"
       x="0"
       y="0" />
    <path
       id="rect4460"
       style="opacity:0.3;fill:#339933;fill-opacity:1;stroke-width:5;stroke-linejoin:round;paint-order:stroke fill markers"
       d="M -256,4 H 768 v 480.00003 c 0,0 -42.66667,-10 -64,-10 -21.33333,0 -42.40782,10 -64,10 -21.59218,0 -42.66667,-10 -64,-10 -21.33333,0 -42.40782,10 -64,10 -21.59218,0 -41.88727,-34.70109 -63.2206,-34.70109 -21.33333,0 -35.64519,25.79497 -70.76128,19.24598 -35.11609,-6.54899 -78.86216,-4.74083 -98.51453,-1.54704 -47.28931,7.53322 -49.24731,-6.72376 -87.36918,-3.31095 -38.12187,3.41281 -56.92075,15.1932 -120.307303,10.4291 -63.3865529,-4.7641 -84.09093,0.69814 -135.827107,-0.116 -21.333333,0 -42.40782,10 -64,10 -21.59218,0 -42.66667,-10 -64,-10 -21.33333,0 -64,10 -64,10 z"
       sodipodi:nodetypes="ccczzzzzzczzczzcc" />
    <path
       id="rect4460-5"
       style="fill:#339933;fill-opacity:1;stroke-width:5;stroke-linejoin:round;paint-order:stroke fill markers"
       d="M -316,4.9999998e-7 H 708 V 480.00003 c 0,0 -42.66667,-10 -64,-10 -21.33333,0 -42.40782,10 -64,10 -21.59218,0 -62.25645,-10.04811 -83.58978,-10.04811 -21.33333,0 -54.44948,9.44764 -136.05941,-21.03042 -81.60993,-30.47805 -128.58292,27.6686 -167.97089,28.29083 -70.79469,-0.0417 -47.30269,-54.28778 -212.560781,-50.98325 C -185.43895,429.53361 -38.40782,480.00003 -60,480.00003 c -21.59218,0 -42.66667,-10 -64,-10 -21.33333,0 -42.40782,10 -64,10 -21.59218,0 -42.66667,-10 -64,-10 -21.33333,0 -64,10 -64,10 z"
       sodipodi:nodetypes="ccczzzzczzzzzcc" />
    <text
       xml:space="preserve"
       style="font-style:normal;font-weight:normal;font-size:21.3333px;line-height:1.25;font-family:sans-serif;fill:#339933;fill-opacity:1;stroke:none"
       x="484.04175"
       y="501.27652"
       id="text2910-3-7"><tspan
         sodipodi:role="line"
         id="tspan2908-6-5"
         x="484.04175"
         y="501.27652"
         style="font-style:normal;font-variant:normal;font-weight:300;font-stretch:normal;font-size:21.3333px;font-family:Montserrat;-inkscape-font-specification:'Montserrat Light';text-align:end;text-anchor:end;fill:#339933;fill-opacity:1">WWW.PHOCA.CZ/NEWS</tspan></text>
    <text
       xml:space="preserve"
       style="font-style:normal;font-variant:normal;font-weight:600;font-stretch:normal;font-size:34.6667px;line-height:1.05;font-family:Rubik;-inkscape-font-specification:'Rubik Semi-Bold';fill:#ffffff;fill-opacity:1;stroke:none"
       x="255.99997"
       y="133"
       id="text11252"><tspan
         sodipodi:role="line"
         x="255.99997"
         y="133"
         id="tspan403"
         style="text-align:center;text-anchor:middle" /><tspan
         sodipodi:role="line"
         x="255.99997"
         y="169.40002"
         style="font-size:34.6667px;text-align:center;text-anchor:middle"
         id="tspan442"></tspan><tspan
         sodipodi:role="line"
         x="255.99997"
         y="205.80006"
         style="font-size:34.6667px;text-align:center;text-anchor:middle"
         id="tspan444">Phoca Download</tspan><tspan
         sodipodi:role="line"
         x="255.99997"
         y="242.20009"
         id="tspan1992"
         style="font-size:34.6667px;text-align:center;text-anchor:middle">version 5.0.3
</tspan><tspan
         sodipodi:role="line"
         x="255.99997"
         y="278.60013"
         id="tspan2906"
         style="font-size:34.6667px;text-align:center;text-anchor:middle">has been released</tspan><tspan
         sodipodi:role="line"
         x="255.99997"
         y="315.00015"
         id="tspan1994"
         style="font-size:34.6667px" /></text>
    <circle
       style="opacity:0.15;fill:#ffffff;fill-opacity:1;stroke-width:5;stroke-linejoin:round;paint-order:stroke fill markers"
       id="path8376"
       cx="516.66956"
       cy="-72.080597"
       inkscape:transform-center-x="92.786515"
       inkscape:transform-center-y="100.55603"
       r="250" />
    <circle
       style="opacity:0.15;fill:#ffffff;fill-opacity:1;stroke-width:5;stroke-linejoin:round;paint-order:stroke fill markers"
       id="path8376-9"
       cx="17.603855"
       cy="244.00002"
       inkscape:transform-center-x="55.671924"
       inkscape:transform-center-y="60.333621"
       r="150" />
    <circle
       style="opacity:0.15;fill:#ffffff;fill-opacity:1;stroke-width:5;stroke-linejoin:round;paint-order:stroke fill markers"
       id="path8376-6"
       cx="103.7038"
       cy="0.11656053"
       inkscape:transform-center-x="37.114606"
       inkscape:transform-center-y="40.222414"
       r="75" />
    <circle
       style="opacity:0.15;fill:#ffffff;fill-opacity:1;stroke-width:5;stroke-linejoin:round;paint-order:stroke fill markers"
       id="path8376-6-2"
       cx="505.16833"
       cy="274.23776"
       inkscape:transform-center-x="37.114606"
       inkscape:transform-center-y="40.222414"
       r="50" />
    <circle
       style="opacity:0.15;fill:#ffffff;fill-opacity:1;stroke-width:5;stroke-linejoin:round;paint-order:stroke fill markers"
       id="path8376-6-2-1"
       cx="453.42072"
       cy="406.30933"
       inkscape:transform-center-x="18.557303"
       inkscape:transform-center-y="20.111207"
       r="25" />
    <text
       xml:space="preserve"
       style="font-style:normal;font-weight:normal;font-size:10.6667px;line-height:1.25;font-family:sans-serif;fill:#339933;fill-opacity:1;stroke:none"
       x="57.955833"
       y="456.62378"
       id="text396"><tspan
         sodipodi:role="line"
         id="tspan394"
         x="57.955833"
         y="456.62378"
         style="font-style:normal;font-variant:normal;font-weight:normal;font-stretch:normal;font-size:10.6667px;font-family:Rubik;-inkscape-font-specification:Rubik;text-align:center;text-anchor:middle;fill:#339933;fill-opacity:1">Phoca Download</tspan></text>
    <g
       id="g760"
       transform="matrix(0.52608452,0,0,0.52608452,99.424183,10.373045)">
      <path
         style="fill:#ffffff;fill-opacity:1;fill-rule:evenodd;stroke:none"
         d="m 389.62109,683.47266 c 9.11328,2.39062 17.27344,5.33593 23.45703,10.22656 l 5.375,4.27344 -0.004,0.008 c 4.63281,3.24219 8.1914,7.86328 9.59375,13.67187 0.24219,0.97657 0.42578,2.01563 0.54687,3.05469 1.46485,14.07031 -9.47265,15.14063 -19.34765,16.05469 -0.64844,1.13672 -1.25,1.99219 -1.66016,2.26562 -0.24609,-0.28906 -0.25391,-1.04687 -0.0898,-2.05078 -0.2461,0.0312 -0.51953,0.0625 -0.82422,0.0977 -0.85547,0.0586 -1.76953,0.12109 -2.8086,0.12109 -1.75,-0.0234 -3.68359,-0.19922 -5.6914,-0.52344 -0.64453,0.73829 -1.20703,1.26563 -1.57813,1.4375 -0.17187,-0.28515 -0.0976,-0.89453 0.14453,-1.6914 -3.30859,-0.63672 -6.73828,-1.65625 -9.79296,-3.01172 -0.33204,-0.14844 -0.66016,-0.30078 -0.98438,-0.46094 -1.21875,1.09766 -2.27734,1.89063 -2.86328,2.05078 -0.17578,-0.5039 0.28906,-1.62109 1.10937,-2.97265 -4.21093,-2.40235 -7.39453,-5.64453 -8.17968,-9.64063 -10.75391,-0.68359 -29.08985,2.58203 -49.29297,6.14063 -31.9961,5.63281 -68.57422,12.08593 -89.60938,5.40625 -1.25781,0.78906 -2.625,1.45312 -4.07031,1.98437 -2.6875,0.97656 -5.61719,1.52344 -8.60937,1.58594 -4.73047,0.0547 -8.94141,-1.55078 -12.17579,-4.26953 -29.23046,2.74219 -40.98046,-12.8711 -44.49609,-33.71485 -3.40234,-19.86328 1.05469,-44.5039 4.52734,-61.53515 1.64063,-15.12891 7.79297,-28.69922 16.91016,-39.04297 10.92969,-12.46094 26.13672,-20.21484 43.05078,-20.33594 h 0.0625 c 16.91406,-0.18359 32.24219,7.32813 43.41797,19.54297 0.71484,0.78125 1.41406,1.58203 2.09375,2.40625 27.58984,9.17578 49.6875,17.56641 67.89063,30.62891 18.17578,13.07812 32.34765,30.7539 43.89843,58.29297 z m 0,0"
         id="path177" />
      <g
         clip-path="url(#clip1)"
         clip-rule="nonzero"
         id="g181">
        <path
           style="fill:none;stroke:#066c06;stroke-width:2.8346;stroke-linecap:butt;stroke-linejoin:miter;stroke-miterlimit:22.9256;stroke-opacity:1"
           d="m 245.70301,99.901083 c 5.74702,-1.507577 10.89298,-3.364951 14.79248,-6.449079 l 3.38959,-2.694917 -0.002,-0.0049 c 2.92154,-2.04459 5.16566,-4.958746 6.05001,-8.621764 0.15273,-0.61584 0.26851,-1.271094 0.34487,-1.926348 0.92376,-8.873026 -5.97365,-9.547987 -12.20103,-10.124413 -0.40891,-0.716839 -0.78827,-1.256315 -1.04693,-1.42875 -0.15519,0.182289 -0.16011,0.660181 -0.0566,1.293265 -0.15519,-0.01971 -0.32763,-0.03941 -0.51977,-0.06158 -0.53948,-0.03695 -1.1159,-0.07636 -1.77116,-0.07636 -1.10358,0.01478 -2.32295,0.125632 -3.58912,0.330091 -0.40645,-0.465575 -0.76117,-0.798129 -0.99519,-0.906517 -0.10839,0.179825 -0.0616,0.56411 0.0911,1.066635 -2.08647,0.401528 -4.2493,1.044465 -6.17564,1.899252 -0.20939,0.09361 -0.41631,0.189678 -0.62077,0.290676 -0.76857,-0.692204 -1.43614,-1.192267 -1.80564,-1.293264 -0.11086,0.317773 0.18228,1.022294 0.69959,1.874617 -2.6555,1.514967 -4.66314,3.559557 -5.15828,6.079575 -6.78163,0.431088 -18.34465,-1.628281 -31.08515,-3.872403 -20.17739,-3.552167 -43.2443,-7.621639 -56.5095,-3.409292 -0.7932,-0.497599 -1.65538,-0.91637 -2.56682,-1.251387 -1.69479,-0.61584 -3.54232,-0.960711 -5.42925,-1.000125 -2.98313,-0.03449 -5.63863,0.977955 -7.6783,2.692454 -18.43333,-1.72928 -25.84312,8.116774 -28.06014,21.261268 -2.14559,12.526193 0.66511,28.065073 2.85504,38.805333 1.03461,9.54059 4.9144,18.09831 10.66388,24.62128 6.89249,7.85813 16.48235,12.7479 27.14871,12.82427 h 0.0394 c 10.66635,0.11577 20.33258,-4.62128 27.38026,-12.3242 0.45079,-0.49267 0.89173,-0.99766 1.32036,-1.51743 17.39872,-5.78643 31.33395,-11.07773 42.81321,-19.31521 11.46202,-8.24733 20.39909,-19.39404 27.68325,-36.760742 z m 0,0"
           transform="matrix(1.58574,0,0,-1.58574,0,841.8898)"
           id="path179" />
      </g>
      <path
         style="fill:#066c06;fill-opacity:1;fill-rule:evenodd;stroke:none"
         d="m 393.04687,717.76172 c 1.16016,1.09765 -7.7539,10.625 -9.95312,11.23437 -0.67188,-1.89453 7.81641,-12.51953 9.83203,-11.48047 0.12109,0.0625 0.24609,0.36719 0.12109,0.2461"
         id="path183" />
      <path
         style="fill:#066c06;fill-opacity:1;fill-rule:evenodd;stroke:none"
         d="m 403.67578,720.875 c 1.21875,0.85547 -5.25391,10.37891 -7.08594,11.23437 -0.91406,-1.52343 5.07032,-12.08984 6.96094,-11.41796 0.125,0.0625 0.30469,0.30468 0.125,0.18359"
         id="path185" />
      <path
         style="fill:#066c06;fill-opacity:1;fill-rule:evenodd;stroke:none"
         d="m 412.65234,720.75391 c 1.34375,0.60937 -3.42187,11.17187 -5.07031,12.27343 -1.16016,-1.34375 2.93359,-12.76562 4.94531,-12.39843 0.0625,0 0.3086,0.24609 0.125,0.125"
         id="path187" />
      <path
         style="fill:#066c06;fill-opacity:1;fill-rule:evenodd;stroke:none"
         d="m 224.80859,699.62109 c -0.42968,-1.58593 12.21094,-4.82422 14.41016,-4.15234 -0.42578,1.95703 -13.375,6.41406 -14.47266,4.39844 -0.0625,-0.1211 0,-0.48828 0.0625,-0.2461 z m 0,0"
         id="path189" />
      <path
         style="fill:#066c06;fill-opacity:1;fill-rule:evenodd;stroke:none"
         d="m 229.9375,708.17187 c -0.36719,-1.40234 10.74609,-4.64062 12.70312,-4.08984 -0.36718,1.76953 -11.66406,6.04297 -12.70312,4.27344 -0.0625,-0.0625 -0.0625,-0.36719 0,-0.1836"
         id="path191" />
      <path
         style="fill:#066c06;fill-opacity:1;fill-rule:evenodd;stroke:none"
         d="m 233.05078,719.28516 c -0.12109,-1.40235 11.35938,-2.50391 13.19141,-1.64844 -0.60938,1.71094 -12.51953,3.78906 -13.25,1.89453 0,-0.12109 0.0586,-0.42969 0.0586,-0.24609 z m 0,0"
         id="path193" />
      <path
         style="fill:#066c06;fill-opacity:1;fill-rule:evenodd;stroke:none"
         d="m 268.16406,622.85937 c 2.8086,5.00782 1.10156,11.35938 -3.90625,14.23047 -0.79297,0.48828 -1.64844,0.79297 -2.5039,1.03907 -1.16016,-1.46875 -2.9336,-2.9336 -5.00782,-4.15235 -2.625,-1.46875 -5.3125,-2.26172 -7.44922,-2.32031 -1.77343,-4.70313 0.1211,-10.14063 4.64063,-12.70313 5.00781,-2.80859 11.35937,-1.10156 14.22656,3.90625 z m -12.45703,2.07813 c -1.09766,-0.79297 -1.46484,-2.19922 -0.79297,-3.11328 0.67188,-0.91797 2.13672,-0.98047 3.23438,-0.1836 1.16406,0.85547 1.46875,2.25782 0.79687,3.17579 -0.67187,0.91406 -2.13672,0.97656 -3.23828,0.12109"
         id="path195" />
      <path
         style="fill:#066c06;fill-opacity:1;fill-rule:evenodd;stroke:none"
         d="m 209.11328,618.83203 c 5.73828,0 10.38281,4.69922 10.38281,10.44141 0,0.91406 -0.125,1.76953 -0.30859,2.625 -1.89063,0.30468 -4.02734,1.09765 -6.10547,2.32031 -2.56641,1.52734 -4.57812,3.48047 -5.67969,5.3125 -4.94531,-0.79297 -8.73047,-5.06641 -8.73047,-10.25781 0,-5.74219 4.64063,-10.44141 10.44141,-10.44141 z m -4.82422,3.60156 c 0.97656,-0.97656 2.44141,-1.22265 3.23438,-0.42968 0.85547,0.79687 0.79687,2.26171 -0.17969,3.23828 -0.91797,1.03906 -2.38281,1.22265 -3.23828,0.48828 -0.79297,-0.79297 -0.73438,-2.25781 0.18359,-3.29688"
         id="path197" />
      <path
         style="fill:#066c06;fill-opacity:1;fill-rule:evenodd;stroke:none"
         d="m 229.44922,649.36328 c 1.76953,0 3.48047,0.24609 5.00781,0.61328 1.52734,0.42578 2.92969,1.03516 4.08984,1.76953 1.16016,0.73047 2.13672,1.64844 2.75,2.625 0.67188,0.97657 1.03516,2.07813 1.03516,3.23828 0,1.09766 -0.42578,2.32032 -1.16016,3.35938 -0.73046,1.03516 -1.52343,2.19531 -2.74609,2.99219 -1.28125,0.79297 -3.05469,1.03515 -4.51953,1.70703 -1.40625,0.73437 -3.05469,2.13672 -4.64063,2.13672 -1.76953,0 -3.66406,-1.33985 -4.88671,-2.13672 -1.28125,-0.85547 -2.8711,-1.03516 -4.03125,-1.83203 -1.16016,-0.73047 -2.13672,-1.64844 -2.8086,-2.625 -0.67187,-1.03907 -1.03515,-2.13672 -1.03515,-3.29688 0,-1.16015 0.36328,-2.26172 1.03515,-3.29687 0.61328,-0.97657 1.58985,-1.89453 2.75,-2.6875 1.16016,-0.79297 2.5625,-1.40625 4.08985,-1.83203 1.58984,-0.42969 3.23828,-0.67188 5.07031,-0.73438 z m -3.96875,3.17578 c 1.70703,0.55078 2.625,1.71094 1.76953,2.9336 -0.91406,1.21875 -1.83203,1.40234 -3.41797,0.79296 -1.58984,-0.61328 -2.62891,-2.01562 -2.26172,-2.99218 0.30469,-0.91797 2.19922,-1.28516 3.91016,-0.73438 z m 0,0"
         id="path199" />
      <path
         style="fill:#066c06;fill-opacity:1;fill-rule:nonzero;stroke:none"
         d="m 202.88281,658.64453 c 2.44531,11.66406 7.02344,17.10156 11.66406,18.87109 1.77344,0.60938 3.54297,0.79297 5.19141,0.55079 1.64844,-0.2461 3.23828,-0.91797 4.58203,-1.77344 3.05078,-2.01172 5.00781,-5.25 4.51563,-8.17969 l 1.10156,-0.125 c 0.48828,3.30078 -1.64844,6.96484 -5.00781,9.22266 -1.46485,0.91406 -3.23828,1.64843 -5.07032,1.89453 -1.83203,0.30469 -3.78515,0.12109 -5.67968,-0.61328 -5.00391,-1.83203 -9.83203,-7.51172 -12.39453,-19.66407 l 1.09765,-0.17968 z m 0,0"
         id="path201" />
      <path
         style="fill:#066c06;fill-opacity:1;fill-rule:nonzero;stroke:none"
         d="m 229.9375,667.98828 c 0.36719,4.09375 3.17578,7.26953 7.02344,9.10156 2.19531,1.03516 4.82422,1.58594 7.44922,1.64844 2.625,0.0586 5.3125,-0.48828 7.8164,-1.64844 4.88672,-2.26172 8.97656,-6.96093 10.07813,-14.90234 l 1.09765,0.18359 c -1.22265,8.30469 -5.55859,13.3125 -10.75,15.75391 -2.625,1.22266 -5.49609,1.71094 -8.30468,1.71094 -2.7461,-0.0586 -5.4961,-0.67188 -7.875,-1.76953 -4.15235,-1.95313 -7.26954,-5.4375 -7.63672,-9.95313 z m 0,0"
         id="path203" />
      <path
         style="fill:#066c06;fill-opacity:1;fill-rule:nonzero;stroke:none"
         d="m 224.92969,676.47656 c 1.89453,1.28516 3.35937,1.52735 5.49609,1.64844 2.13672,0.0625 3.11328,0.125 5.61719,-0.91406 l 2.99219,1.22265 c -2.8086,1.16016 -6.22657,2.01563 -8.73047,1.89063 -2.56641,-0.1211 -5.375,-1.09766 -7.57422,-2.5625 z m 0,0"
         id="path205" />
      <path
         style="fill:#066c06;fill-opacity:1;fill-rule:evenodd;stroke:none"
         d="m 210.02734,661.39453 c 0.98047,0 1.71094,0.73438 1.71094,1.58594 0,0.91797 -0.73047,1.65234 -1.71094,1.65234 -0.97656,0 -1.76953,-0.73437 -1.76953,-1.65234 0,-0.85156 0.79297,-1.58594 1.76953,-1.58594"
         id="path207" />
      <path
         style="fill:#066c06;fill-opacity:1;fill-rule:evenodd;stroke:none"
         d="m 217.11328,664.875 c 0.97656,0 1.71094,0.73437 1.71094,1.64844 0,0.85547 -0.73438,1.58984 -1.71094,1.58984 -0.97656,0 -1.76953,-0.73437 -1.76953,-1.58984 0,-0.91407 0.79297,-1.64844 1.76953,-1.64844"
         id="path209" />
      <path
         style="fill:#066c06;fill-opacity:1;fill-rule:evenodd;stroke:none"
         d="m 212.77734,669.51562 c 0.97657,0 1.76953,0.73438 1.76953,1.64844 0,0.85547 -0.79296,1.58985 -1.76953,1.58985 -0.91797,0 -1.71093,-0.73438 -1.71093,-1.58985 0,-0.91406 0.79296,-1.64844 1.71093,-1.64844"
         id="path211" />
      <path
         style="fill:#066c06;fill-opacity:1;fill-rule:evenodd;stroke:none"
         d="m 244.16406,670.92187 c 0.98047,0 1.77344,0.73047 1.77344,1.58594 0,0.91797 -0.79297,1.64844 -1.77344,1.64844 -0.97656,0 -1.70703,-0.73047 -1.70703,-1.64844 0,-0.85547 0.73047,-1.58594 1.70703,-1.58594"
         id="path213" />
      <path
         style="fill:#066c06;fill-opacity:1;fill-rule:evenodd;stroke:none"
         d="m 249.60156,667.19531 c 0.97656,0 1.76953,0.73438 1.76953,1.64844 0,0.85547 -0.79297,1.58984 -1.76953,1.58984 -0.91797,0 -1.71094,-0.73437 -1.71094,-1.58984 0,-0.91406 0.79297,-1.64844 1.71094,-1.64844"
         id="path215" />
      <path
         style="fill:#066c06;fill-opacity:1;fill-rule:evenodd;stroke:none"
         d="m 245.875,662.25 c 0.91797,0 1.71094,0.73047 1.71094,1.64844 0,0.85547 -0.79297,1.58593 -1.71094,1.58593 -0.97656,0 -1.76953,-0.73046 -1.76953,-1.58593 0,-0.91797 0.79297,-1.64844 1.76953,-1.64844"
         id="path217" />
      <path
         style="fill:#066c06;fill-opacity:1;fill-rule:nonzero;stroke:none"
         d="m 245.81641,663.77734 c 5.49609,-0.67187 10.19531,-0.125 14.22656,1.28125 4.03125,1.40625 7.39062,3.78516 10.25781,6.90235 l -0.17969,0.12109 c -2.8125,-3.05469 -6.16797,-5.375 -10.14062,-6.83984 -4.02735,-1.40625 -8.66797,-1.89453 -14.10547,-1.28125 z m 0,0"
         id="path219" />
      <path
         style="fill:#066c06;fill-opacity:1;fill-rule:nonzero;stroke:none"
         d="m 244.47266,672.38672 c 3.17578,1.95312 5.67968,4.39844 7.50781,7.39062 1.83594,3.05078 2.99609,6.59375 3.54297,10.6836 h -0.1836 c -0.54687,-4.02735 -1.70703,-7.57032 -3.53906,-10.5625 -1.83203,-2.9336 -4.33594,-5.4336 -7.45312,-7.32813 z m 0,0"
         id="path221" />
      <path
         style="fill:#066c06;fill-opacity:1;fill-rule:nonzero;stroke:none"
         d="m 249.72266,669.02734 c 4.64062,2.13672 8.18359,4.27344 10.80859,6.41407 2.6875,2.13671 4.45703,4.33593 5.55859,6.53125 l -0.18359,0.125 c -1.10156,-2.19922 -2.87109,-4.39844 -5.49609,-6.47266 -2.625,-2.14063 -6.16797,-4.27734 -10.75,-6.41406 z m 0,0"
         id="path223" />
      <path
         style="fill:#066c06;fill-opacity:1;fill-rule:nonzero;stroke:none"
         d="m 191.34375,667.86719 c 2.625,-2.44141 5.55469,-4.03125 8.60937,-4.82422 3.17579,-0.85547 6.53516,-0.79297 10.07422,0 v 0.18359 c -3.53906,-0.79297 -6.89843,-0.79297 -10.01172,0 -3.05468,0.79297 -5.92578,2.38281 -8.55078,4.76172 z m 0,0"
         id="path225" />
      <path
         style="fill:#066c06;fill-opacity:1;fill-rule:nonzero;stroke:none"
         d="m 192.32031,674.76953 c 3.72266,-3.11719 7.57031,-5.25391 11.66406,-6.59766 4.03125,-1.34375 8.30469,-1.89062 12.82422,-1.70703 v 0.17969 c -4.51953,-0.12109 -8.73437,0.42969 -12.76562,1.71094 -4.02735,1.34375 -7.875,3.48047 -11.60156,6.59765 z m 0,0"
         id="path227" />
      <path
         style="fill:#066c06;fill-opacity:1;fill-rule:nonzero;stroke:none"
         d="m 200.6875,686.00391 c 1.40234,-4.27344 3.17187,-7.51172 5.1875,-9.89063 1.95703,-2.44531 4.21484,-3.97266 6.53516,-4.94922 l 0.12109,0.1836 c -2.32031,0.97656 -4.51563,2.5039 -6.53125,4.88671 -1.95703,2.38282 -3.72656,5.55469 -5.07031,9.83204 l -0.2461,-0.0625 z m 0,0"
         id="path229" />
      <path
         style="fill:#066c06;fill-opacity:1;fill-rule:nonzero;stroke:none"
         d="m 379.42969,716.78125 c -9.95313,-1.83203 -30.16797,1.77344 -52.69922,5.74219 -32.61328,5.73828 -69.98438,12.33593 -90.8086,5.00781 l 1.83204,-5.19141 c 19.48046,6.83985 56.05859,0.36719 88,-5.25 23.01953,-4.03125 43.72265,-7.69531 54.65234,-5.67968 z m 0,0"
         id="path231" />
      <path
         style="fill:#066c06;fill-opacity:1;fill-rule:nonzero;stroke:none"
         d="m 232.25781,572.60156 h 0.0625 c 16.91406,-0.18359 32.24219,7.32813 43.41797,19.54297 11.05078,12.08984 17.95313,28.94531 18.13672,47.57031 v 0.0625 c 0.18359,17.52735 -5.74219,33.64844 -15.51172,45.73828 -9.89453,12.27344 -23.81641,20.58204 -39.57031,22.23047 l -2.01563,0.17969 -0.79297,-1.89062 c -1.34375,-3.35938 -2.75,-6.35157 -4.33593,-8.36719 -1.28516,-1.64844 -2.6875,-2.625 -4.27735,-2.625 -4.76172,0 -6.53125,1.83203 -8.97656,4.27344 l -1.03906,1.03906 c -0.42578,0.42578 -0.85156,0.85547 -1.21875,1.28125 v 0.0625 c -0.42969,0.42578 -0.79297,0.91406 -1.10156,1.28125 l -1.28125,1.71094 -1.95313,-0.79297 C 200.01562,699.07422 190,690.33984 182.91406,679.16406 176.01562,668.29297 171.98437,655.10547 171.86328,640.875 c -0.18359,-18.6875 6.47266,-35.60156 17.33984,-47.9375 10.9336,-12.45703 26.14063,-20.21484 43.05469,-20.33594 z m 0.1211,5.4375 h -0.0586 c -15.26953,0.1211 -29.07031,7.20313 -39.02344,18.5 -10.01562,11.35938 -16.12109,27.05469 -16,44.27735 0.1211,13.1875 3.91016,25.40234 10.19922,35.41796 6.10547,9.64844 14.65625,17.28125 24.54688,21.80079 0.48828,-0.55079 0.98047,-1.09766 1.46875,-1.58985 l 0.97656,-0.97656 c 3.35938,-3.41797 5.80078,-5.85938 12.88281,-5.85938 3.54297,0 6.29297,1.76954 8.55078,4.64063 1.64844,2.07422 3.05469,4.76172 4.33594,7.75391 13.375,-1.95313 25.21875,-9.28125 33.83203,-19.90625 9.03907,-11.17579 14.47266,-26.01563 14.35157,-42.26172 v -0.0586 c -0.1836,-17.22265 -6.59766,-32.79297 -16.79688,-43.96875 -10.13672,-11.11328 -23.99609,-17.89453 -39.26562,-17.76953 z m 0,0"
         id="path233" />
      <path
         style="fill:#066c06;fill-opacity:1;fill-rule:nonzero;stroke:none"
         d="m 325.14062,658.52344 c 13.80079,13.49609 33.46485,17.83203 51.35938,21.86328 14.28906,3.17578 27.53906,6.16797 36.57812,13.3125 l 5.375,4.27344 -3.42187,4.27734 -5.37109,-4.27734 c -8.0625,-6.41016 -20.70313,-9.21875 -34.38282,-12.27344 -18.625,-4.15235 -39.02343,-8.73438 -53.98437,-23.26563 -0.54688,-0.48828 -0.91406,-1.22265 -0.91406,-2.01562 0,-1.52735 1.21875,-2.75 2.74609,-2.75 0.79687,0 1.52734,0.30859 2.01562,0.85547 z m 0,0"
         id="path235" />
      <path
         style="fill:#066c06;fill-opacity:1;fill-rule:nonzero;stroke:none"
         d="m 428.58984,714.70703 c 1.46485,14.10547 -9.52734,15.14453 -19.41797,16.05859 -0.67187,0.0625 -1.34375,0.1836 -2.5039,0.3086 -0.85547,0.0586 -1.77344,0.12109 -2.8125,0.12109 -5.00391,-0.0625 -11.53906,-1.40625 -16.91406,-3.78515 -5.86329,-2.62891 -10.50391,-6.65625 -11.05469,-11.91016 -0.0586,-0.30469 -0.0586,-0.73047 -0.0586,-1.09766 0.0586,-4.33593 2.32032,-8.97656 5.4961,-12.76562 3.48047,-4.21094 8.18359,-7.63281 12.03125,-8.54688 1.21875,-0.30859 2.4414,-0.48828 3.66406,-0.61328 6.28906,-0.67187 13.1875,0.67188 18.86719,3.91016 5.86328,3.23437 10.5039,8.42578 12.15234,15.26562 0.2461,0.97657 0.42969,2.01563 0.55078,3.05469 z m -19.90625,10.625 c 7.26563,-0.67187 15.32422,-1.46484 14.47266,-10.07422 -0.125,-0.79687 -0.24609,-1.58984 -0.42969,-2.32422 -1.28125,-5.25 -4.88281,-9.21875 -9.52734,-11.78515 -4.69922,-2.625 -10.37891,-3.78516 -15.63281,-3.23438 -0.97657,0.0586 -1.95313,0.24219 -2.92969,0.48828 -2.75,0.67188 -6.28906,3.29688 -9.10156,6.71485 -2.44141,2.93359 -4.21094,6.35156 -4.21094,9.28515 0,0.1211 0,0.30469 0,0.54688 0.36719,2.99219 3.66406,5.55859 7.875,7.45312 4.70312,2.13672 10.32422,3.29688 14.65625,3.29688 0.79687,0 1.52734,0 2.26172,-0.1211 l 2.5625,-0.24609 z m 0,0"
         id="path237" />
      <path
         style="fill:#066c06;fill-opacity:1;fill-rule:nonzero;stroke:none"
         d="m 177.66406,632.81641 c -3.29687,16.54687 -7.75781,40.73046 -4.51953,59.84375 3.11328,18.13671 13.43359,31.69531 39.26563,29.00781 l 0.55078,5.49609 c -29.74219,3.05469 -41.64844,-12.64062 -45.19141,-33.64844 -3.41797,-19.96875 1.10156,-44.76171 4.58203,-61.80078 z m 0,0"
         id="path239" />
      <path
         style="fill:#066c06;fill-opacity:1;fill-rule:nonzero;stroke:none"
         d="m 227.37109,689.60937 c 8.48828,0 12.09375,9.83204 16.1836,20.88282 l 0.0625,0.12109 c 0.60937,1.71094 0.91406,3.42188 0.91406,5.00781 0.0625,3.48047 -1.21875,6.53516 -3.41797,8.97657 -2.07812,2.32421 -4.88672,4.15625 -8.0625,5.3164 -2.6875,0.97656 -5.61719,1.52344 -8.60937,1.58594 -5.375,0.0625 -10.07813,-2.01563 -13.4336,-5.43359 -1.65234,-1.64844 -2.93359,-3.54297 -3.84765,-5.67969 -0.85547,-2.13672 -1.34375,-4.45703 -1.40625,-6.90235 -0.0625,-5.49609 2.19921,-11.54296 7.75781,-17.03906 l 0.97656,-0.97656 c 3.35547,-3.41797 5.80078,-5.85938 12.88281,-5.85938 z m 11.05469,22.77735 c -3.42187,-9.16016 -6.41406,-17.34375 -11.05469,-17.34375 -4.76172,0 -6.53125,1.83203 -8.97656,4.27344 l -1.03906,1.03906 c -4.39453,4.33594 -6.16797,8.91797 -6.10547,13.07031 0,1.70703 0.36719,3.35547 0.97656,4.82422 0.61328,1.52344 1.52735,2.86719 2.625,3.96875 2.38281,2.37891 5.74219,3.84766 9.52735,3.78516 2.32031,0 4.64062,-0.48829 6.78125,-1.22266 2.3789,-0.91406 4.39453,-2.19531 5.85937,-3.78516 1.28516,-1.52734 2.07813,-3.29687 2.07813,-5.3125 0,-0.97656 -0.2461,-2.01562 -0.67188,-3.17578 z m 0,0"
         id="path241" />
      <path
         style="fill:#066c06;fill-opacity:1;fill-rule:nonzero;stroke:none"
         d="m 277.01953,594.28125 c 27.96875,9.28125 50.32031,17.71094 68.70313,30.89844 18.5039,13.3125 32.85156,31.39062 44.51562,59.78515 l -5.06641,2.14063 c -11.23828,-27.42188 -24.97656,-44.76563 -42.625,-57.46485 -17.77343,-12.82421 -39.75781,-21.07031 -67.23828,-30.16796 z m 0,0"
         id="path243" />
    </g>
  </g>
</svg>
